{
  "title": "American Ultra (2015) 720p WEBRiP CAM Audio 800MB -={SPARROW}=-",
  "uid": 12397031,
  "size": 860048772,
  "categoryP": "video",
  "categoryS": "hd___movies",
  "magnet": "?xt=urn:btih:16fbeed3f12515a8891588c425b8ad5224f5adfc&amp;dn=American+Ultra+%282015%29+720p+WEBRiP+CAM+Audio+800MB+-%3D%7BSPARROW%7D%3D-&amp;tr=udp%3A%2F%2Ftracker.openbittorrent.com%3A80&amp;tr=udp%3A%2F%2Fopen.demonii.com%3A1337&amp;tr=udp%3A%2F%2Ftracker.coppersurfer.tk%3A6969&amp;tr=udp%3A%2F%2Fexodus.desync.com%3A6969",
  "seeders": 83,
  "leechers": 36,
  "uploader": "SS132203",
  "files": 3,
  "time": 1441972000,
  "description": "American Ultra (2015) 720p WEBRiP CAM Audio 800MB -={SPARROW}=-\n &lt;a href=&quot;\nhttp://imgsparrow.co/image/8yC&quot; rel=&quot;nofollow&quot; target=&quot;_NEW&quot;&gt;\nhttp://imgsparrow.co/image/8yC&lt;/a&gt;\n &lt;a href=&quot;\nhttp://imgsparrow.co/image/9b&quot; rel=&quot;nofollow&quot; target=&quot;_NEW&quot;&gt;\nhttp://imgsparrow.co/image/9b&lt;/a&gt;\n\nInfo : - \n\nThanks LEGi0N For Source!\n\nFormat                      : MPEG-4\nFormat profile              : Base Media\nCodec ID                    : isom\nFile size                   : 799 MiB\nDuration                    : 1h 35mn\nOverall bit rate mode       : Variable\nOverall bit rate            : 1 169 Kbps\n\nVideo\nID                          : 1\nFormat                      : AVC\nFormat/Info                 : Advanced Video Codec\nFormat profile              : &lt;a class=&quot;__cf_email__&quot; href=&quot;/cdn-cgi/l/email-protection&quot; data-cfemail=&quot;b2fadbd5daf2fe869c83&quot;&gt;[email&amp;#160;protected]&lt;/a&gt;&lt;script data-cfhash='f9e31' type=&quot;text/javascript&quot;&gt;\n/* &lt;![CDATA[ */!function(){try{var t=&quot;currentScript&quot;in document?document.currentScript:function(){for(var t=document.getElementsByTagName(&quot;script&quot;),e=t.length;e--;)if(t[e].getAttribute(&quot;data-cfhash&quot;))return t[e]}();if(t&amp;&amp;t.previousSibling){var e,r,n,i,c=t.previousSibling,a=c.getAttribute(&quot;data-cfemail&quot;);if(a){for(e=&quot;&quot;,r=parseInt(a.substr(0,2),16),n=2;a.length-n;n+=2)i=parseInt(a.substr(n,2),16)^r,e+=String.fromCharCode(i);e=document.createTextNode(e),c.parentNode.replaceChild(e,c)}t.parentNode.removeChild(t);}}catch(u){}}()/* ]]&gt; */&lt;/script&gt;\nFormat settings, CABAC      : Yes\nFormat settings, ReFrames   : 4 frames\nCodec ID                    : avc1\nCodec ID/Info               : Advanced Video Coding\nDuration                    : 1h 35mn\nBit rate                    : 916 Kbps\nMaximum bit rate            : 8 554 Kbps\nWidth                       : 1 280 pixels\nHeight                      : 688 pixels\nDisplay aspect ratio        : 1.85:1\nFrame rate mode             : Constant\nFrame rate                  : 24.000 fps\nColor space                 : YUV\nChroma subsampling          : 4:2:0\nBit depth                   : 8 bits\nScan type                   : Progressive\nBits/(Pixel*Frame)          : 0.043\nStream size                 : 626 MiB (78%)\nWriting library             : x264 core 148 r2597 e86f3a1\n\nAudio\nID                          : 2\nFormat                      : AAC\nFormat/Info                 : Advanced Audio Codec\nFormat profile              : LC\nCodec ID                    : 40\nDuration                    : 1h 35mn\nBit rate mode               : Variable\nBit rate                    : 250 Kbps\nMaximum bit rate            : 256 Kbps\nChannel(s)                  : 2 channels\nChannel positions           : Front: L R\nSampling rate               : 48.0 KHz\nCompression mode            : Lossy\nStream size                 : 171 MiB (21%)\nTitle                       : -={SPARROW}=-\nLanguage                    : English\n\nScreens : -\n &lt;a href=&quot;\nhttp://imgsparrow.co/image/8Zi&quot; rel=&quot;nofollow&quot; target=&quot;_NEW&quot;&gt;\nhttp://imgsparrow.co/image/8Zi&lt;/a&gt; &lt;a href=&quot;\nhttp://imgsparrow.co/image/8ZV&quot; rel=&quot;nofollow&quot; target=&quot;_NEW&quot;&gt;\nhttp://imgsparrow.co/image/8ZV&lt;/a&gt; &lt;a href=&quot;\nhttp://imgsparrow.co/image/8Zl&quot; rel=&quot;nofollow&quot; target=&quot;_NEW&quot;&gt;\nhttp://imgsparrow.co/image/8Zl&lt;/a&gt; &lt;a href=&quot;\nhttp://imgsparrow.co/image/8Zs&quot; rel=&quot;nofollow&quot; target=&quot;_NEW&quot;&gt;\nhttp://imgsparrow.co/image/8Zs&lt;/a&gt; &lt;a href=&quot;\nhttp://imgsparrow.co/image/8ZS&quot; rel=&quot;nofollow&quot; target=&quot;_NEW&quot;&gt;\nhttp://imgsparrow.co/image/8ZS&lt;/a&gt; &lt;a href=&quot;\nhttp://imgsparrow.co/image/8ZR&quot; rel=&quot;nofollow&quot; target=&quot;_NEW&quot;&gt;\nhttp://imgsparrow.co/image/8ZR&lt;/a&gt;\n &lt;a href=&quot;\nhttp://imgsparrow.co/image/8nG&quot; rel=&quot;nofollow&quot; target=&quot;_NEW&quot;&gt;\nhttp://imgsparrow.co/image/8nG&lt;/a&gt;",
  "parsed": {
    "xt": "urn:btih:16fbeed3f12515a8891588c425b8ad5224f5adfc",
    "dn": "American Ultra (2015) 720p WEBRiP CAM Audio 800MB -={SPARROW}=-",
    "tr": [
      "udp://exodus.desync.com:6969",
      "udp://open.demonii.com:1337",
      "udp://tracker.coppersurfer.tk:6969",
      "udp://tracker.openbittorrent.com:80"
    ],
    "infoHash": "16fbeed3f12515a8891588c425b8ad5224f5adfc",
    "infoHashBuffer": {
      "type": "Buffer",
      "data": [
        22,
        251,
        238,
        211,
        241,
        37,
        21,
        168,
        137,
        21,
        136,
        196,
        37,
        184,
        173,
        82,
        36,
        245,
        173,
        252
      ]
    },
    "name": "American Ultra (2015) 720p WEBRiP CAM Audio 800MB -={SPARROW}=-",
    "announce": [
      "udp://exodus.desync.com:6969",
      "udp://open.demonii.com:1337",
      "udp://tracker.coppersurfer.tk:6969",
      "udp://tracker.openbittorrent.com:80"
    ],
    "urlList": []
  },
  "previous": 119,
  "peers": 10,
  "last_updated": "2016-12-24T18:12:22.475Z"
}